<?xml version="1.0" encoding="UTF-8"?>
<svg xmlns="http://www.w3.org/2000/svg" xmlns:xlink="http://www.w3.org/1999/xlink" width="1000px" height="1295px" viewBox="0 0 500 647" version="1.1">
<g id="surface1">
<path style="fill-rule:nonzero;fill:rgb(48.627451%,48.627451%,48.627451%);fill-opacity:1;stroke-width:2;stroke-linecap:round;stroke-linejoin:round;stroke:rgb(100%,100%,100%);stroke-opacity:1;stroke-miterlimit:4;" d="M 739.796875 857.302635 L 741.703125 863.096171 L 738.703125 868.100035 L 733.101562 870.500326 L 731.703125 873.698108 L 732.703125 877.701199 L 738.296875 881.297726 L 744.601562 886.497054 L 747.398438 894.096672 L 747.703125 896.598604 L 732.101562 900.398413 L 725.703125 904.503146 L 721.703125 908.396777 L 713.898438 913.502282 L 713 919.201996 L 715.296875 925.198814 L 712.601562 930.101037 L 705.203125 934.09631 L 704.398438 941.000078 L 706.5 950.898347 L 703.5 964.103857 L 703.398438 975.300002 L 699.101562 981.202998 L 690.601562 988.403871 L 688.296875 998.200499 L 689.601562 1006.300504 L 692.601562 1010.897804 L 698.796875 1017.301186 L 700 1022.203409 L 696.101562 1022.703795 L 690.898438 1021.796845 L 686.601562 1022.000127 L 678.101562 1028.700613 L 672.203125 1023.196363 L 664.601562 1014.298867 L 657.398438 1016.097131 L 650.796875 1022.000127 L 637.703125 1015.401281 L 628.296875 1019.89694 L 621.898438 1026.996172 L 613.898438 1029.803027 L 596.101562 1028.700613 L 594.398438 1033.602836 L 593.101562 1040.803709 L 590.5 1048.700432 L 591 1055.698023 L 590.898438 1065.197546 L 585.203125 1086.40142 L 585.101562 1093.500652 L 587.796875 1100.998629 L 588.203125 1109.200275 L 580.101562 1129.700481 L 577.5 1128.598067 L 575.898438 1128.699708 L 574.101562 1129.403376 L 571.898438 1129.403376 L 558.898438 1119.200185 L 546.796875 1102.101043 L 559.5 1117.503562 L 558 1110.099407 L 554.203125 1102.898534 L 548.898438 1096.901716 L 539.898438 1088.496788 L 536.398438 1084.298233 L 534.796875 1079.497651 L 537 1074.900351 L 538.101562 1070.803438 L 536.601562 1065.002083 L 533.898438 1059.396192 L 529 1051.702751 L 524.398438 1041.499559 L 523.398438 1037.0039 L 523.5 1034.001582 L 525 1030.397236 L 525.296875 1027.996945 L 524.796875 1026.800709 L 522.101562 1024.502059 L 521.601562 1022.203409 L 518.703125 1017.301186 L 518 1015.29964 L 515.898438 1001.703203 L 522 997.997217 L 522.203125 998.497603 L 526.101562 1007.097994 L 530.898438 1009.599926 L 546.601562 1011.796935 L 554.796875 1010.897804 L 563.203125 1011.898576 L 567.398438 1010.397417 L 570.898438 1007.801663 L 577.398438 1005.19809 L 583.703125 1000.796253 L 586.101562 995.299821 L 589.101562 990.100494 L 594.398438 983.001262 L 600.5 976.59788 L 607 971.203089 L 614.398438 964.002216 L 620.898438 955.597288 L 630.898438 938.599787 L 641.296875 923.502192 L 643.601562 916.903346 L 642.601562 910.202859 L 641.203125 905.699382 L 641.296875 900.703336 L 644.898438 897.200632 L 651.796875 897.896481 L 657.601562 897.302273 L 669.898438 889.999759 L 674.398438 884.597149 L 682.296875 878.49869 L 690 874.198494 L 694.203125 869.202449 L 697.796875 862.400321 L 706.296875 855.598194 L 724.796875 846.200312 L 729.101562 847.201084 L 734.898438 849.398093 L 739.101562 855.301089 Z M 739.796875 857.302635 " transform="matrix(0.5,0,0,0.499614,0,0)"/>
<path style="fill-rule:nonzero;fill:rgb(48.627451%,48.627451%,48.627451%);fill-opacity:1;stroke-width:2;stroke-linecap:round;stroke-linejoin:round;stroke:rgb(100%,100%,100%);stroke-opacity:1;stroke-miterlimit:4;" d="M 569.398438 1166.00195 L 571.398438 1168.902628 L 571.101562 1169.9034 L 568.398438 1171.701664 L 563.398438 1176.00186 L 562.5 1172.702437 L 563.898438 1169.997223 L 566.703125 1166.400696 L 568.703125 1166.400696 Z M 696.101562 1022.703795 L 699.601562 1029.302641 L 700.296875 1034.197045 L 705.703125 1035.502741 L 711.203125 1039.099268 L 708.398438 1052.898987 L 708.296875 1058.098314 L 706.296875 1063.102178 L 696.5 1067.199092 L 691.703125 1069.896487 L 684.101562 1071.499288 L 678.703125 1076.002765 L 676.296875 1082.601611 L 672.601562 1089.200456 L 669.601562 1096.698434 L 668.796875 1111.397284 L 670 1117.902308 L 672 1124.000767 L 673.101562 1131.099999 L 673.101562 1136.502608 L 675.703125 1141.498654 L 680.296875 1147.096726 L 677.796875 1150.896536 L 672.5 1154.102136 L 670.398438 1158.003586 L 669.898438 1162.499245 L 672.601562 1166.400696 L 676 1168.097318 L 679.101562 1172.499155 L 679 1178.198869 L 679.601562 1184.297328 L 682.796875 1190.200324 L 687.398438 1195.102547 L 697.601562 1199.801488 L 702.101562 1199.496565 L 703 1251.098912 L 701.398438 1258.401426 L 698.898438 1264.398244 L 695.5 1266.900176 L 691.5 1270.598345 L 691.601562 1278.901631 L 693.101562 1288.096231 L 692.703125 1293.999227 L 688.203125 1287.1971 L 681.398438 1281.997772 L 673.601562 1278.502886 L 665.601562 1276.602981 L 665.296875 1283.201827 L 663 1285.500477 L 659.601562 1284.702986 L 655.898438 1281.599027 L 655.703125 1279.198736 L 657 1272.201145 L 651.5 1262.998726 L 651 1260.598435 L 651.101562 1258.503067 L 651.5 1255.297467 L 651.5 1244.500066 L 652 1241.396107 L 654.5 1237.79958 L 655 1234.797261 L 635.101562 1183.202733 L 633.5 1180.302055 L 628 1173.499928 L 623.601562 1163.601659 L 621.601562 1160.802623 L 613.398438 1154.297599 L 608 1151.3031 L 607.101562 1147.597113 L 606.398438 1146.299236 L 602 1143.398558 L 592 1138.597976 L 587.5 1135.501835 L 582.703125 1131.303281 L 580.101562 1129.700481 L 588.203125 1109.200275 L 587.796875 1100.998629 L 585.101562 1093.500652 L 585.203125 1086.40142 L 590.898438 1065.197546 L 591 1055.698023 L 590.5 1048.700432 L 593.101562 1040.803709 L 594.398438 1033.602836 L 596.101562 1028.700613 L 613.898438 1029.803027 L 621.898438 1026.996172 L 628.296875 1019.89694 L 637.703125 1015.401281 L 650.796875 1022.000127 L 657.398438 1016.097131 L 664.601562 1014.298867 L 672.203125 1023.196363 L 678.101562 1028.700613 L 686.601562 1022.000127 L 690.898438 1021.796845 Z M 696.101562 1022.703795 " transform="matrix(0.5,0,0,0.499614,0,0)"/>
<path style="fill-rule:nonzero;fill:rgb(48.627451%,48.627451%,48.627451%);fill-opacity:1;stroke-width:2;stroke-linecap:round;stroke-linejoin:round;stroke:rgb(100%,100%,100%);stroke-opacity:1;stroke-miterlimit:4;" d="M 483.796875 968.302411 L 483.203125 969.498648 L 480.898438 967.497102 L 479.203125 963.298547 L 479.5 962.00067 L 480.203125 962.00067 L 481.101562 963.196906 L 481.796875 965.096811 L 483.898438 967.301639 Z M 484.296875 940.702974 L 481.398438 947.497283 L 485.296875 934.197951 L 485.898438 934.299592 Z M 487.796875 927.89621 L 491.296875 917.997941 L 491.796875 917.8963 L 492 919.796205 Z M 494.101562 905.402277 L 493.703125 907.802568 L 494.296875 897.200632 L 494.796875 897.396095 Z M 643.601562 916.903346 L 641.296875 923.502192 L 630.898438 938.599787 L 620.898438 955.597288 L 614.398438 964.002216 L 607 971.203089 L 600.5 976.59788 L 594.398438 983.001262 L 589.101562 990.100494 L 586.101562 995.299821 L 583.703125 1000.796253 L 577.398438 1005.19809 L 570.898438 1007.801663 L 567.398438 1010.397417 L 563.203125 1011.898576 L 554.796875 1010.897804 L 546.601562 1011.796935 L 530.898438 1009.599926 L 526.101562 1007.097994 L 522.203125 998.497603 L 522 997.997217 L 515.898438 1001.703203 L 514.898438 995.401462 L 513.101562 991.797116 L 509.203125 987.903485 L 513.898438 984.502421 L 516.601562 978.396143 L 515.5 973.196816 L 509.203125 972.297684 L 508 974.103766 L 506.898438 977.497011 L 505.101562 980.202225 L 501.796875 980.100584 L 500.5 977.801934 L 501 970.796525 L 500.203125 968.396234 L 496.101562 966.59797 L 493.796875 968.701157 L 492 971.601834 L 489.203125 972.297684 L 486.296875 969.803571 L 485.601562 966.300866 L 486.296875 962.899802 L 487.398438 960.601152 L 490.398438 958.998352 L 494.101562 958.497965 L 497.203125 957.497193 L 498.203125 954.502693 L 496.796875 953.001534 L 487.398438 950.601243 L 487.398438 948.701338 L 495.296875 948.599697 L 494.5 945.996124 L 490.203125 942.297956 L 487.398438 939.100174 L 488.101562 935.097083 L 490.601562 933.603742 L 493.296875 932.696792 L 494.703125 930.202678 L 493.898438 926.301228 L 492.5 923.103446 L 493.398438 920.101128 L 494.796875 916.40296 L 497.101562 913.799387 L 496.601562 911.500737 L 497.101562 909.202087 L 500.398438 900.20295 L 502 898.498509 L 504.601562 897.896481 L 500.898438 895.402368 L 502.5 891.297636 L 507.703125 893.299181 L 516.601562 894.597059 L 523.796875 896.403141 L 530 893.596286 L 532.5 888.701881 L 538.296875 885.097536 L 544.898438 879.999849 L 549.601562 875.199267 L 555.703125 870.601967 L 563.5 867.099262 L 578.703125 864.300226 L 587.203125 863.799839 L 594.398438 866.20013 L 598.398438 868.600421 L 600.5 872.798976 L 602.203125 877.896662 L 612.101562 887.998213 L 613.101562 895.49619 L 611.296875 909.702473 L 612.898438 914.299773 L 617.398438 917.802478 L 621.203125 917.802478 L 626.5 915.402187 L 631.5 914.800159 L 635.203125 915.902573 Z M 643.601562 916.903346 " transform="matrix(0.5,0,0,0.499614,0,0)"/>
<path style="fill-rule:nonzero;fill:rgb(48.627451%,48.627451%,48.627451%);fill-opacity:1;stroke-width:2;stroke-linecap:round;stroke-linejoin:round;stroke:rgb(100%,100%,100%);stroke-opacity:1;stroke-miterlimit:4;" d="M 724.296875 489.002608 L 724.101562 489.198072 L 719.5 490.300485 L 715.101562 488.603863 L 712.398438 484.796235 L 708.101562 482.200481 L 701.203125 479.503085 L 702.398438 475.398353 L 707.898438 463.998925 L 710.101562 460.996607 L 710.796875 459.503266 L 710.796875 457.798825 L 710.101562 455.89892 L 709 453.701911 L 710.5 450.699593 L 712.296875 448.901329 L 720.601562 452.497857 L 735.703125 457.298439 L 741.101562 460.097475 L 744.898438 463.998925 L 746.796875 467.697094 L 745.796875 471.301439 L 743.398438 472.700958 L 738.296875 473.600089 L 732.398438 476.00038 L 729 480.300576 L 726.703125 485.898649 Z M 724.296875 489.002608 " transform="matrix(0.5,0,0,0.499614,0,0)"/>
<path style="fill-rule:nonzero;fill:rgb(48.627451%,48.627451%,48.627451%);fill-opacity:1;stroke-width:2;stroke-linecap:round;stroke-linejoin:round;stroke:rgb(100%,100%,100%);stroke-opacity:1;stroke-miterlimit:4;" d="M 843.101562 523.599637 L 840.796875 530.096841 L 839.398438 534.803601 L 840 539.197619 L 836.203125 544.998974 L 822.203125 559.197438 L 817.898438 569.697734 L 815.101562 568.900243 L 804.5 569.901016 L 803.703125 570.503043 L 803.101562 565.60082 L 798.5 557.797919 L 795.203125 554.498497 L 793.898438 550.09666 L 788.898438 546.101387 L 776.398438 549.299169 L 771.601562 548.798783 L 764.796875 549.299169 L 757.101562 551.402356 L 753 550.401583 L 753.898438 545.303897 L 755.203125 540.698778 L 754.203125 536.703505 L 753.203125 533.802828 L 754.203125 530.698869 L 755 527.196164 L 755.296875 523.302532 L 754.601562 518.103205 L 750.703125 514.702141 L 738.601562 509.002427 L 732.601562 504.498949 L 728.703125 500.097113 L 724.296875 489.002608 L 726.703125 485.898649 L 729 480.300576 L 732.398438 476.00038 L 738.296875 473.600089 L 743.398438 472.700958 L 745.796875 471.301439 L 746.796875 467.697094 L 744.898438 463.998925 L 741.101562 460.097475 L 735.703125 457.298439 L 720.601562 452.497857 L 712.296875 448.901329 L 713.796875 446.602679 L 714.398438 442.701229 L 715.296875 439.800552 L 717.296875 436.899874 L 720 434.796688 L 722.5 433.897556 L 722.296875 432.70132 L 723 429.800642 L 725.203125 423.702183 L 727.296875 420.40276 L 730.398438 421.497356 L 744.101562 420.496583 L 748.703125 423.600542 L 752.703125 432.302574 L 757.703125 434.296301 L 762 435.500356 L 766.101562 437.501902 L 772.898438 439.698911 L 776.5 443.897465 L 775.398438 449.69882 L 778.898438 453.396989 L 785.398438 455.500175 L 789.601562 458.596316 L 792.703125 461.700275 L 796.5 462.396125 L 800.398438 462.099021 L 803.796875 465.601726 L 806.398438 470.097385 L 810.703125 472.302212 L 814.101562 474.897967 L 814.5 479.901831 L 816.101562 487.196526 L 814.203125 494.999426 L 809.601562 501.496631 L 810.101562 505.796827 L 815.296875 509.698277 L 821.5 513.498086 L 827 514.397218 L 831 517.297895 L 838.296875 521.402628 Z M 843.101562 523.599637 " transform="matrix(0.5,0,0,0.499614,0,0)"/>
<path style="fill-rule:nonzero;fill:rgb(48.627451%,48.627451%,48.627451%);fill-opacity:1;stroke-width:2;stroke-linecap:round;stroke-linejoin:round;stroke:rgb(100%,100%,100%);stroke-opacity:1;stroke-miterlimit:4;" d="M 982.398438 448.901329 L 984.5 449.401716 L 986.101562 451.598725 L 985.398438 453.897375 L 981.601562 453.803552 L 980.203125 452.998243 L 978.5 450.300848 L 979.398438 450.597952 Z M 935.398438 601.503544 L 934.296875 601.503544 L 923.203125 599.799103 L 904.703125 588.69678 L 900.898438 589.60373 L 898.5 595.600548 L 893.601562 600.096207 L 887.101562 600.096207 L 878.796875 596.898425 L 863.796875 593.098616 L 857.296875 590.002475 L 854.796875 587.899289 L 848.898438 583.200348 L 844 583.200348 L 839.296875 585.498998 L 835.296875 586.101025 L 831.601562 583.599093 L 827.203125 581.003339 L 822.296875 580.002566 L 820.898438 576.202757 L 821.5 570.698506 L 817.898438 569.697734 L 822.203125 559.197438 L 836.203125 544.998974 L 840 539.197619 L 839.398438 534.803601 L 840.796875 530.096841 L 843.101562 523.599637 L 843.601562 522.098477 L 847.5 520.503496 L 850.796875 521.097705 L 854.203125 519.799827 L 856.398438 516.000018 L 853.296875 503.599818 L 858.703125 499.698367 L 861.796875 498.799236 L 867.5 497.196435 L 872.398438 495.398172 L 876.203125 492.098749 L 881.203125 488.603863 L 887.796875 485.398262 L 891.703125 482.599226 L 891.296875 480.59768 L 890.296875 477.399899 L 890.101562 473.201344 L 892.101562 468.299121 L 896.796875 464.303848 L 900.601562 461.99738 L 913.601562 456.696411 L 927.101562 448.596406 L 933.296875 446.696502 L 938.296875 443.099975 L 941.398438 438.096111 L 944.703125 433.999197 L 948.398438 431.997651 L 951.898438 430.801415 L 956.5 427.900738 L 958.101562 424.100929 L 955.601562 420.496583 L 957 417.603724 L 968.203125 415.297255 L 971.898438 412.803142 L 980.296875 408.401305 L 986.203125 407.103428 L 989.5 409.003333 L 990.296875 410.097928 L 978.296875 416.102565 L 972.796875 420.801506 L 954.101562 443.600361 L 951.203125 448.400943 L 948.898438 455.203071 L 947.296875 462.896512 L 946.796875 470.49613 L 947.101562 477.900285 L 950.398438 493.396626 L 950.203125 497.399717 L 948.703125 501.301168 L 948.898438 509.401172 L 952.398438 515.702914 L 958.898438 519.698186 L 966.5 521.097705 L 966.5 522.903787 L 963.296875 522.598864 L 960.203125 522.903787 L 957.601562 523.701278 L 955.703125 525.100796 L 958.398438 530.096841 L 959.703125 536.601864 L 958.898438 542.199937 L 952.898438 545.601001 L 952.5 548.102933 L 953.203125 551.097433 L 954.898438 553.802647 L 955.5 556.601683 L 953 559.001974 L 946.796875 562.598501 L 939.796875 570.596865 L 939.5 573.802466 L 940 580.800057 L 938.796875 583.40363 L 937.5 585.70228 L 936.703125 588.900062 L 936.203125 595.303444 L 935.601562 596.898425 L 934.601562 598.196303 L 934.101562 599.603639 Z M 935.398438 601.503544 " transform="matrix(0.5,0,0,0.499614,0,0)"/>
<path style="fill-rule:nonzero;fill:rgb(48.627451%,48.627451%,48.627451%);fill-opacity:1;stroke-width:2;stroke-linecap:round;stroke-linejoin:round;stroke:rgb(100%,100%,100%);stroke-opacity:1;stroke-miterlimit:4;" d="M 934.796875 365.000604 L 934.5 376.900418 L 934.703125 379.902736 L 938.398438 383.796368 L 938 386.2983 L 935.5 388.096563 L 931.5 389.597723 L 926.398438 389.003514 L 915.796875 384.601677 L 912.796875 382.39685 L 909.101562 379.003604 L 906.296875 375.5009 L 904.601562 371.998195 L 901.703125 368.300027 L 901.101562 365.399349 L 904.296875 363.20234 L 911.5 360.098381 L 915.898438 357.197703 L 917.296875 358.096835 L 919.703125 360.802049 L 923.601562 362.201567 Z M 934.796875 365.000604 " transform="matrix(0.5,0,0,0.499614,0,0)"/>
<path style="fill-rule:nonzero;fill:rgb(48.627451%,48.627451%,48.627451%);fill-opacity:1;stroke-width:2;stroke-linecap:round;stroke-linejoin:round;stroke:rgb(100%,100%,100%);stroke-opacity:1;stroke-miterlimit:4;" d="M 724.296875 489.002608 L 728.703125 500.097113 L 732.601562 504.498949 L 738.601562 509.002427 L 750.703125 514.702141 L 754.601562 518.103205 L 755.296875 523.302532 L 755 527.196164 L 754.203125 530.698869 L 753.203125 533.802828 L 754.203125 536.703505 L 755.203125 540.698778 L 753.898438 545.303897 L 753 550.401583 L 757.101562 551.402356 L 764.796875 549.299169 L 771.601562 548.798783 L 776.398438 549.299169 L 788.898438 546.101387 L 793.898438 550.09666 L 795.203125 554.498497 L 798.5 557.797919 L 803.101562 565.60082 L 803.703125 570.503043 L 800 573.098797 L 798.203125 578.69687 L 793.296875 580.698416 L 788 580.596775 L 783.796875 583.599093 L 779.203125 588.00093 L 773.296875 591.198712 L 761.703125 600.40113 L 754.898438 603.301808 L 746 608.000749 L 740.601562 605.897562 L 735.601562 600.299489 L 729.601562 597.899198 L 719.703125 597.101707 L 714.203125 600.40113 L 713.296875 607.797467 L 708.101562 610.596503 L 696 611.300171 L 684.398438 604.599685 L 677.796875 603.403449 L 670.5 599.799103 L 655.398438 588.69678 L 649.101562 583.200348 L 644.398438 578.196484 L 635.203125 563.896379 L 642.398438 555.796374 L 644.296875 551.801101 L 645.203125 545.202256 L 647.398438 539.596364 L 653.296875 529.197709 L 654.898438 522.903787 L 656.398438 520.198573 L 663.203125 518.197027 L 665.101562 516.101659 L 666.203125 513.498086 L 667.601562 510.996154 L 671.796875 506.703777 L 676.398438 503.302713 L 682 501.801554 L 689.101562 503.099431 L 688.203125 497.696822 L 690.898438 493.998654 L 694.601562 490.198844 L 696.5 484.499131 L 697.296875 482.599226 L 700.898438 480.800962 L 701.203125 479.503085 L 708.101562 482.200481 L 712.398438 484.796235 L 715.101562 488.603863 L 719.5 490.300485 L 724.101562 489.198072 Z M 724.296875 489.002608 " transform="matrix(0.5,0,0,0.499614,0,0)"/>
<path style="fill-rule:nonzero;fill:rgb(48.627451%,48.627451%,48.627451%);fill-opacity:1;stroke-width:2;stroke-linecap:round;stroke-linejoin:round;stroke:rgb(100%,100%,100%);stroke-opacity:1;stroke-miterlimit:4;" d="M 897.398438 413.201887 L 893.203125 414.89851 L 887.398438 414.796869 L 882.601562 413.796096 L 878.898438 410.496673 L 875.101562 406.196478 L 869.296875 401.599178 L 865.398438 394.898691 L 866.898438 387.502355 L 865.703125 381.200613 L 860 375.696363 L 856.203125 371.497808 L 857.796875 368.503309 L 859.601562 366.103018 L 861.703125 361.497899 L 865.296875 357.502626 L 876.203125 351.099244 L 879.101562 348.597312 L 883.101562 346.603585 L 886.898438 347.799821 L 889 349.99683 L 888.5 353.601176 L 888.898438 357.103881 L 892.101562 363.89819 L 894.601562 373.898099 L 898.5 377.400804 L 900.101562 381.802641 L 898.5 388.401486 L 898.601562 393.499173 L 903.203125 396.102746 L 907 399.300528 L 905 403.600723 Z M 897.398438 413.201887 " transform="matrix(0.5,0,0,0.499614,0,0)"/>
<path style="fill-rule:nonzero;fill:rgb(48.627451%,48.627451%,48.627451%);fill-opacity:1;stroke-width:2;stroke-linecap:round;stroke-linejoin:round;stroke:rgb(100%,100%,100%);stroke-opacity:1;stroke-miterlimit:4;" d="M 915.898438 357.197703 L 911.5 360.098381 L 904.296875 363.20234 L 901.101562 365.399349 L 901.703125 368.300027 L 904.601562 371.998195 L 906.296875 375.5009 L 909.101562 379.003604 L 912.796875 382.39685 L 915.796875 384.601677 L 926.398438 389.003514 L 931.5 389.597723 L 935.5 388.096563 L 938 386.2983 L 938.398438 383.796368 L 934.703125 379.902736 L 934.5 376.900418 L 934.796875 365.000604 L 969.398438 373.397713 L 972.601562 375.399259 L 971 379.097427 L 970.601562 381.998104 L 971.296875 387.197432 L 973.703125 395.899464 L 976.296875 399.996378 L 978.5 400.903328 L 985.5 399.902555 L 989.101562 400.3013 L 993.296875 401.403714 L 997 403.303619 L 999 405.797732 L 990.296875 410.097928 L 989.5 409.003333 L 986.203125 407.103428 L 980.296875 408.401305 L 971.898438 412.803142 L 968.203125 415.297255 L 957 417.603724 L 955.601562 420.496583 L 958.101562 424.100929 L 956.5 427.900738 L 951.898438 430.801415 L 948.398438 431.997651 L 944.703125 433.999197 L 941.398438 438.096111 L 938.296875 443.099975 L 933.296875 446.696502 L 927.101562 448.596406 L 913.601562 456.696411 L 900.601562 461.99738 L 896.796875 464.303848 L 892.101562 468.299121 L 890.101562 473.201344 L 890.296875 477.399899 L 891.296875 480.59768 L 891.703125 482.599226 L 887.796875 485.398262 L 881.203125 488.603863 L 876.203125 492.098749 L 872.398438 495.398172 L 867.5 497.196435 L 861.796875 498.799236 L 859.296875 493.396626 L 850.398438 484.897876 L 849 479.299803 L 848.203125 474.100476 L 851.296875 470.402308 L 852.796875 465.101339 L 844.296875 452.80278 L 839.296875 450.801234 L 831.898438 451.199979 L 826.796875 448.299302 L 828.101562 441.598815 L 827.101562 436.501129 L 821.703125 431.403443 L 820.703125 426.297938 L 821.703125 420.496583 L 821.5 414.296483 L 825.203125 410.30121 L 838.296875 406.39976 L 841.601562 402.998696 L 842.601562 398.800141 L 842.101562 394.703228 L 837 387.197432 L 832.796875 385.000423 L 828.703125 383.99965 L 825.5 381.200613 L 820.796875 378.096654 L 814.5 375.102154 L 810.296875 370.497036 L 821.5 368.401668 L 826.296875 366.603404 L 832.398438 361.396258 L 834.296875 360.497126 L 836.5 360.098381 L 839.601562 360.098381 L 843.101562 361.200795 L 845 363.89819 L 846.203125 366.603404 L 847.703125 368.198386 L 851.203125 366.798867 L 847.601562 361.099154 L 841.796875 355.196158 L 838.703125 353.296253 L 839.601562 350.598858 L 841.398438 349.097699 L 843.296875 348.198567 L 844.101562 347.197794 L 846.203125 342.100107 L 849.398438 336.197112 L 856 330.301934 L 865.601562 325.399711 L 876.601562 322.897779 L 887.398438 324.101834 L 891.898438 327.502898 L 901.898438 341.701362 L 905.5 349.097699 L 906.703125 348.597312 L 909.398438 347.901462 L 912.398438 347.502717 L 914.601562 348.096926 L 914.5 349.003876 L 913.398438 350.301753 L 912.398438 352.100017 L 912.5 354.297026 L 913.601562 355.501081 Z M 897.398438 413.201887 L 905 403.600723 L 907 399.300528 L 903.203125 396.102746 L 898.601562 393.499173 L 898.5 388.401486 L 900.101562 381.802641 L 898.5 377.400804 L 894.601562 373.898099 L 892.101562 363.89819 L 888.898438 357.103881 L 888.5 353.601176 L 889 349.99683 L 886.898438 347.799821 L 883.101562 346.603585 L 879.101562 348.597312 L 876.203125 351.099244 L 865.296875 357.502626 L 861.703125 361.497899 L 859.601562 366.103018 L 857.796875 368.503309 L 856.203125 371.497808 L 860 375.696363 L 865.703125 381.200613 L 866.898438 387.502355 L 865.398438 394.898691 L 869.296875 401.599178 L 875.101562 406.196478 L 878.898438 410.496673 L 882.601562 413.796096 L 887.398438 414.796869 L 893.203125 414.89851 Z M 897.398438 413.201887 " transform="matrix(0.5,0,0,0.499614,0,0)"/>
<path style="fill-rule:nonzero;fill:rgb(48.627451%,48.627451%,48.627451%);fill-opacity:1;stroke-width:2;stroke-linecap:round;stroke-linejoin:round;stroke:rgb(100%,100%,100%);stroke-opacity:1;stroke-miterlimit:4;" d="M 861.796875 498.799236 L 858.703125 499.698367 L 853.296875 503.599818 L 856.398438 516.000018 L 854.203125 519.799827 L 850.796875 521.097705 L 847.5 520.503496 L 843.601562 522.098477 L 843.101562 523.599637 L 838.296875 521.402628 L 831 517.297895 L 827 514.397218 L 821.5 513.498086 L 815.296875 509.698277 L 810.101562 505.796827 L 809.601562 501.496631 L 814.203125 494.999426 L 816.101562 487.196526 L 814.5 479.901831 L 814.101562 474.897967 L 810.703125 472.302212 L 806.398438 470.097385 L 803.796875 465.601726 L 800.398438 462.099021 L 796.5 462.396125 L 792.703125 461.700275 L 789.601562 458.596316 L 785.398438 455.500175 L 778.898438 453.396989 L 775.398438 449.69882 L 776.5 443.897465 L 772.898438 439.698911 L 766.101562 437.501902 L 762 435.500356 L 757.703125 434.296301 L 752.703125 432.302574 L 748.703125 423.600542 L 744.101562 420.496583 L 730.398438 421.497356 L 727.296875 420.40276 L 736.203125 406.196478 L 743.101562 397.901009 L 750.296875 391.80255 L 768.703125 385.696272 L 773 382.998877 L 776.703125 379.801095 L 781.203125 377.299163 L 790.203125 374.101381 L 810.296875 370.497036 L 814.5 375.102154 L 820.796875 378.096654 L 825.5 381.200613 L 828.703125 383.99965 L 832.796875 385.000423 L 837 387.197432 L 842.101562 394.703228 L 842.601562 398.800141 L 841.601562 402.998696 L 838.296875 406.39976 L 825.203125 410.30121 L 821.5 414.296483 L 821.703125 420.496583 L 820.703125 426.297938 L 821.703125 431.403443 L 827.101562 436.501129 L 828.101562 441.598815 L 826.796875 448.299302 L 831.898438 451.199979 L 839.296875 450.801234 L 844.296875 452.80278 L 852.796875 465.101339 L 851.296875 470.402308 L 848.203125 474.100476 L 849 479.299803 L 850.398438 484.897876 L 859.296875 493.396626 Z M 861.796875 498.799236 " transform="matrix(0.5,0,0,0.499614,0,0)"/>
<path style="fill-rule:nonzero;fill:rgb(48.627451%,48.627451%,48.627451%);fill-opacity:1;stroke-width:2;stroke-linecap:round;stroke-linejoin:round;stroke:rgb(100%,100%,100%);stroke-opacity:1;stroke-miterlimit:4;" d="M 647.203125 689.602824 L 647.296875 693.199352 L 643 694.802152 L 641.796875 697.702829 L 642.296875 701.698102 L 640.296875 706.30322 L 638.703125 711.698011 L 638.601562 717.397725 L 637.398438 723.996571 L 636.5 737.397544 L 638.601562 743.699285 L 642.203125 746.998708 L 646.101562 748.398226 L 651.703125 751.298904 L 650.703125 754.801608 L 646.898438 756.302768 L 644.398438 758.601418 L 642 760.196399 L 641 760.900068 L 629 758.499777 L 623.203125 758.601418 L 611 752.596781 L 591.296875 750.298131 L 579.703125 745.896294 L 573.101562 744.098031 L 565.5 743.699285 L 543.5 746.302858 L 535.898438 741.901022 L 536.703125 740.501503 L 538.296875 733.402271 L 539.5 730.399953 L 546.601562 723.597825 L 548.601562 720.798789 L 551.296875 713.003707 L 555.5 705.302448 L 561.203125 689.19626 L 563.898438 684.497319 L 566.898438 681.50282 L 569.398438 679.798378 L 571.601562 678.703783 L 573.203125 677.296446 L 573.796875 674.301946 L 575 671.50291 L 580.101562 667.499819 L 581.296875 664.4975 L 581.898438 654.403769 L 582.796875 651.596914 L 585.5 649.001159 L 596.796875 635.803468 L 602.601562 637.703373 L 606.601562 641.198259 L 609.296875 647.5 L 610.296875 655.099618 L 614.796875 660.502228 L 626.703125 663.997114 L 631 667.60146 L 634.203125 672.597505 L 636.203125 676.600597 L 636.296875 680.603688 L 637.5 683.903111 L 641.796875 684.700601 L 647.203125 688.203306 Z M 647.203125 689.602824 " transform="matrix(0.5,0,0,0.499614,0,0)"/>
<path style="fill-rule:nonzero;fill:rgb(48.627451%,48.627451%,48.627451%);fill-opacity:1;stroke-width:2;stroke-linecap:round;stroke-linejoin:round;stroke:rgb(100%,100%,100%);stroke-opacity:1;stroke-miterlimit:4;" d="M 499.601562 893.19754 L 497.796875 894.597059 L 497.398438 893.502463 L 499.796875 890.398504 L 500.703125 887.998213 L 501.796875 886.497054 L 502.398438 886.99744 L 502.5 888.099854 L 501.101562 890.101399 Z M 501.796875 880.601876 L 501.101562 879.898208 L 503.101562 876.098399 L 504 875.699653 L 503.5 877.599558 Z M 506.703125 871.60274 L 506.601562 867.200903 L 507.101562 867.599649 L 507.203125 870.500326 Z M 508.101562 861.899935 L 507.296875 863.502735 L 506.796875 861.501189 Z M 506.796875 855.801476 L 506.296875 857.099353 L 505 854.996166 Z M 477 856.802248 L 473.796875 858.39723 L 477.601562 853.002439 L 491.5 838.897798 L 502.101562 825.403002 L 504.601562 824.597692 L 495.601562 839.296543 L 491.101562 843.800021 L 488.203125 847.302725 L 484.398438 851.102535 L 481.398438 853.197903 Z M 666.5 805.700287 L 672.601562 806.396137 L 679.398438 808.99971 L 683.5 810.203765 L 688.601562 813.002801 L 688.296875 818.30377 L 685.296875 823.401456 L 686.5 828.202038 L 689.203125 834.699243 L 689.601562 840.602239 L 690.703125 844.402048 L 698.296875 845.801566 L 723.898438 845.99703 L 724.796875 846.200312 L 706.296875 855.598194 L 697.796875 862.400321 L 694.203125 869.202449 L 690 874.198494 L 682.296875 878.49869 L 674.398438 884.597149 L 669.898438 889.999759 L 657.601562 897.302273 L 651.796875 897.896481 L 644.898438 897.200632 L 641.296875 900.703336 L 641.203125 905.699382 L 642.601562 910.202859 L 643.601562 916.903346 L 635.203125 915.902573 L 631.5 914.800159 L 626.5 915.402187 L 621.203125 917.802478 L 617.398438 917.802478 L 612.898438 914.299773 L 611.296875 909.702473 L 613.101562 895.49619 L 612.101562 887.998213 L 602.203125 877.896662 L 600.5 872.798976 L 598.398438 868.600421 L 594.398438 866.20013 L 587.203125 863.799839 L 578.703125 864.300226 L 563.5 867.099262 L 555.703125 870.601967 L 549.601562 875.199267 L 544.898438 879.999849 L 538.296875 885.097536 L 532.5 888.701881 L 530 893.596286 L 523.796875 896.403141 L 516.601562 894.597059 L 507.703125 893.299181 L 502.5 891.297636 L 506.296875 891.000531 L 509.601562 889.601013 L 511 890.101399 L 510.101562 886.903618 L 507.898438 888.498599 L 506.101562 887.998213 L 503.601562 887.896572 L 503.601562 884.597149 L 506 878.999076 L 509.703125 878.701972 L 515.101562 878.803613 L 511.398438 868.303317 L 507.296875 860.297135 L 509.203125 856.598966 L 509.203125 854.699062 L 506.101562 853.197903 L 506.5 851.399639 L 508.296875 849.398093 L 509.203125 846.802339 L 513.203125 841.603011 L 504.703125 842.103398 L 504.5 833.401366 L 516.101562 832.001847 L 524.398438 836.700788 L 530.5 836.802429 L 534.398438 833.596829 L 536.101562 828.702425 L 538.203125 825.700106 L 543.5 824.902615 L 550.5 819.202902 L 554.898438 816.802611 L 558.703125 813.002801 L 575 803.597101 L 582.203125 801.603374 L 594.796875 799.296905 L 601.703125 798.89816 L 607 803.503278 L 612 809.398456 L 624.601562 814.003574 L 628.296875 813.503188 L 636.601562 811.102897 L 641.296875 814.496142 L 643.703125 818.397592 L 650 817.803383 L 661.703125 815.403092 L 665.703125 814.097397 L 665.703125 810.696333 L 666 805.700287 Z M 573.796875 836.497507 L 570 840.602239 L 570.898438 846.200312 L 577 848.600603 L 584 853.096262 L 591.296875 854.800703 L 598.101562 852.103307 L 602.601562 851.50128 L 605.601562 849.296452 L 603.101562 842.502143 L 600.601562 838.499052 L 596.5 836.302043 L 590.898438 834.198857 L 583.101562 834.902525 Z M 573.796875 836.497507 " transform="matrix(0.5,0,0,0.499614,0,0)"/>
<path style="fill-rule:nonzero;fill:rgb(48.627451%,48.627451%,48.627451%);fill-opacity:1;stroke-width:2;stroke-linecap:round;stroke-linejoin:round;stroke:rgb(100%,100%,100%);stroke-opacity:1;stroke-miterlimit:4;" d="M 573.796875 836.497507 L 583.101562 834.902525 L 590.898438 834.198857 L 596.5 836.302043 L 600.601562 838.499052 L 603.101562 842.502143 L 605.601562 849.296452 L 602.601562 851.50128 L 598.101562 852.103307 L 591.296875 854.800703 L 584 853.096262 L 577 848.600603 L 570.898438 846.200312 L 570 840.602239 Z M 573.796875 836.497507 " transform="matrix(0.5,0,0,0.499614,0,0)"/>
<path style="fill-rule:nonzero;fill:rgb(48.627451%,48.627451%,48.627451%);fill-opacity:1;stroke-width:2;stroke-linecap:round;stroke-linejoin:round;stroke:rgb(100%,100%,100%);stroke-opacity:1;stroke-miterlimit:4;" d="M 935.398438 601.503544 L 936 602.301035 L 937.601562 605.201712 L 937.796875 606.296307 L 936.398438 608.696598 L 930.601562 614.396312 L 924.398438 622.996704 L 919.703125 626.70269 L 918.296875 628.696417 L 919 630.799604 L 918.101562 632.300763 L 911.5 637.39845 L 909 639.798741 L 906.203125 645.803377 L 903.296875 658.000296 L 895.898438 668.899337 L 894.398438 673.301174 L 894.601562 678.000115 L 896.398438 683.199442 L 897.898438 685.498092 L 899.203125 686.498865 L 900 687.898383 L 900.101562 691.096165 L 899 694.700511 L 895.296875 700.501866 L 894.601562 703.996752 L 894.203125 710.400134 L 891 726.701785 L 884.601562 743.699285 L 876.601562 783.800564 L 871.796875 793.597191 L 860.796875 857.70138 L 857.296875 856.700607 L 846.5 861.899935 L 842.601562 867.302544 L 844.296875 874.198494 L 844.898438 881.102263 L 841.296875 887.998213 L 837.898438 893.19754 L 835.203125 899.796386 L 832.796875 908.201314 L 829.101562 915.902573 L 824.296875 929.100264 L 821.203125 935.198724 L 821.296875 941.89921 L 820.398438 948.099311 L 813.898438 951.797479 L 805.703125 950.702884 L 794 941.000078 L 784.796875 925.003351 L 779.101562 923.502192 L 772.796875 922.60306 L 767.796875 917.802478 L 761.703125 914.9018 L 753.898438 912.102764 L 748.898438 904.002759 L 747.703125 896.598604 L 747.398438 894.096672 L 744.601562 886.497054 L 738.296875 881.297726 L 732.703125 877.701199 L 731.703125 873.698108 L 733.101562 870.500326 L 738.703125 868.100035 L 741.703125 863.096171 L 739.796875 857.302635 L 745.796875 853.79993 L 748.898438 851.000894 L 747.203125 844.800793 L 748.703125 842.103398 L 750.203125 838.100307 L 755.398438 834.198857 L 762.796875 832.603875 L 770.203125 832.298952 L 775.5 827.600011 L 776.796875 819.101261 L 780.796875 813.901933 L 788.398438 811.102897 L 792.898438 807.998937 L 794.5 802.901251 L 797.703125 790.297769 L 798.898438 781.900659 L 798 774.699786 L 796.796875 769.297177 L 793.601562 765.200263 L 791.5 761.197172 L 797.203125 751.79929 L 797.398438 748.101122 L 799.898438 741.103531 L 803.796875 732.596962 L 806.796875 723.801107 L 808.398438 713.902839 L 809 706.30322 L 807.203125 701.799743 L 805.203125 698.50032 L 807.5 690.900702 L 812.601562 680.197124 L 820.601562 669.798469 L 820.898438 665.897019 L 819.398438 661.40136 L 814.203125 658.000296 L 811.296875 654.896336 L 811.101562 644.998068 L 814.796875 642.097391 L 821.398438 639.900382 L 826.601562 637.500091 L 826.398438 633.801922 L 825 627.601822 L 827.796875 625.600277 L 829 623.49709 L 832.398438 621.800467 L 835.5 618.000658 L 836.796875 612.902972 L 839.796875 607.899108 L 847.296875 603.200167 L 849.703125 597.000066 L 850.101562 592.801512 L 854.796875 587.899289 L 857.296875 590.002475 L 863.796875 593.098616 L 878.796875 596.898425 L 887.101562 600.096207 L 893.601562 600.096207 L 898.5 595.600548 L 900.898438 589.60373 L 904.703125 588.69678 L 923.203125 599.799103 L 934.296875 601.503544 Z M 935.398438 601.503544 " transform="matrix(0.5,0,0,0.499614,0,0)"/>
<path style="fill-rule:nonzero;fill:rgb(48.627451%,48.627451%,48.627451%);fill-opacity:1;stroke-width:2;stroke-linecap:round;stroke-linejoin:round;stroke:rgb(100%,100%,100%);stroke-opacity:1;stroke-miterlimit:4;" d="M 825 627.601822 L 826.398438 633.801922 L 826.601562 637.500091 L 821.398438 639.900382 L 814.796875 642.097391 L 811.101562 644.998068 L 811.296875 654.896336 L 814.203125 658.000296 L 819.398438 661.40136 L 820.898438 665.897019 L 820.601562 669.798469 L 812.601562 680.197124 L 807.5 690.900702 L 805.203125 698.50032 L 807.203125 701.799743 L 809 706.30322 L 808.398438 713.902839 L 806.796875 723.801107 L 803.796875 732.596962 L 799.898438 741.103531 L 797.398438 748.101122 L 797.203125 751.79929 L 791.5 761.197172 L 793.601562 765.200263 L 796.796875 769.297177 L 798 774.699786 L 798.898438 781.900659 L 797.703125 790.297769 L 794.5 802.901251 L 792.898438 807.998937 L 788.398438 811.102897 L 780.796875 813.901933 L 776.796875 819.101261 L 775.5 827.600011 L 770.203125 832.298952 L 762.796875 832.603875 L 755.398438 834.198857 L 750.203125 838.100307 L 748.703125 842.103398 L 747.203125 844.800793 L 748.898438 851.000894 L 745.796875 853.79993 L 739.796875 857.302635 L 739.101562 855.301089 L 734.898438 849.398093 L 729.101562 847.201084 L 724.796875 846.200312 L 723.898438 845.99703 L 698.296875 845.801566 L 690.703125 844.402048 L 689.601562 840.602239 L 689.203125 834.699243 L 686.5 828.202038 L 685.296875 823.401456 L 688.296875 818.30377 L 688.601562 813.002801 L 683.5 810.203765 L 679.398438 808.99971 L 672.601562 806.396137 L 666.5 805.700287 L 663.898438 802.197583 L 655.703125 803.096714 L 648.898438 805.09826 L 643.101562 802.596328 L 639.101562 797.897387 L 640 792.197673 L 641.898438 786.998346 L 640.898438 779.297086 L 641.898438 772.096213 L 643.898438 767.397272 L 642 760.196399 L 644.398438 758.601418 L 646.898438 756.302768 L 650.703125 754.801608 L 651.703125 751.298904 L 646.101562 748.398226 L 642.203125 746.998708 L 638.601562 743.699285 L 636.5 737.397544 L 637.398438 723.996571 L 638.601562 717.397725 L 638.703125 711.698011 L 640.296875 706.30322 L 642.296875 701.698102 L 641.796875 697.702829 L 643 694.802152 L 647.296875 693.199352 L 647.203125 689.602824 L 651.5 689.798288 L 669.398438 692.30022 L 673.601562 691.698192 L 678.601562 686.89761 L 686.203125 672.503683 L 689.898438 663.997114 L 696.296875 661.002614 L 706.398438 662.402132 L 712.398438 662.19885 L 718.203125 654.497591 L 721.203125 652.597686 L 730.101562 659.298173 L 733.601562 658.399041 L 736.203125 652.902609 L 740.898438 649.001159 L 747.5 649.1028 L 752.5 647.202896 L 760.398438 639.603277 L 765.5 636.7026 L 769.898438 635.89729 L 778.703125 631.198349 L 784.898438 631.002886 L 791.203125 630.002113 L 802.296875 625.600277 L 806.898438 625.303172 L 811.601562 626.296126 Z M 825 627.601822 " transform="matrix(0.5,0,0,0.499614,0,0)"/>
<path style="fill-rule:nonzero;fill:rgb(48.627451%,48.627451%,48.627451%);fill-opacity:1;stroke-width:2;stroke-linecap:round;stroke-linejoin:round;stroke:rgb(100%,100%,100%);stroke-opacity:1;stroke-miterlimit:4;" d="M 803.703125 570.503043 L 804.5 569.901016 L 815.101562 568.900243 L 817.898438 569.697734 L 821.5 570.698506 L 820.898438 576.202757 L 822.296875 580.002566 L 827.203125 581.003339 L 831.601562 583.599093 L 835.296875 586.101025 L 839.296875 585.498998 L 844 583.200348 L 848.898438 583.200348 L 854.796875 587.899289 L 850.101562 592.801512 L 849.703125 597.000066 L 847.296875 603.200167 L 839.796875 607.899108 L 836.796875 612.902972 L 835.5 618.000658 L 832.398438 621.800467 L 829 623.49709 L 827.796875 625.600277 L 825 627.601822 L 811.601562 626.296126 L 806.898438 625.303172 L 802.296875 625.600277 L 791.203125 630.002113 L 784.898438 631.002886 L 778.703125 631.198349 L 769.898438 635.89729 L 765.5 636.7026 L 760.398438 639.603277 L 752.5 647.202896 L 747.5 649.1028 L 740.898438 649.001159 L 736.203125 652.902609 L 733.601562 658.399041 L 730.101562 659.298173 L 721.203125 652.597686 L 718.203125 654.497591 L 712.398438 662.19885 L 706.398438 662.402132 L 696.296875 661.002614 L 689.898438 663.997114 L 686.203125 672.503683 L 678.601562 686.89761 L 673.601562 691.698192 L 669.398438 692.30022 L 651.5 689.798288 L 647.203125 689.602824 L 647.203125 688.203306 L 641.796875 684.700601 L 637.5 683.903111 L 636.296875 680.603688 L 636.203125 676.600597 L 634.203125 672.597505 L 631 667.60146 L 626.703125 663.997114 L 614.796875 660.502228 L 610.296875 655.099618 L 609.296875 647.5 L 606.601562 641.198259 L 602.601562 637.703373 L 596.796875 635.803468 L 597.398438 634.998159 L 598.203125 631.698736 L 601.5 629.00134 L 603.703125 622.496317 L 606.398438 610.197758 L 615.703125 594.099389 L 618.5 584.201121 L 621.898438 578.69687 L 635.203125 563.896379 L 644.398438 578.196484 L 649.101562 583.200348 L 655.398438 588.69678 L 670.5 599.799103 L 677.796875 603.403449 L 684.398438 604.599685 L 696 611.300171 L 708.101562 610.596503 L 713.296875 607.797467 L 714.203125 600.40113 L 719.703125 597.101707 L 729.601562 597.899198 L 735.601562 600.299489 L 740.601562 605.897562 L 746 608.000749 L 754.898438 603.301808 L 761.703125 600.40113 L 773.296875 591.198712 L 779.203125 588.00093 L 783.796875 583.599093 L 788 580.596775 L 793.296875 580.698416 L 798.203125 578.69687 L 800 573.098797 Z M 803.703125 570.503043 " transform="matrix(0.5,0,0,0.499614,0,0)"/>
<path style="fill-rule:nonzero;fill:rgb(48.627451%,48.627451%,48.627451%);fill-opacity:1;stroke-width:2;stroke-linecap:round;stroke-linejoin:round;stroke:rgb(100%,100%,100%);stroke-opacity:1;stroke-miterlimit:4;" d="M 642 760.196399 L 643.898438 767.397272 L 641.898438 772.096213 L 640.898438 779.297086 L 641.898438 786.998346 L 640 792.197673 L 639.101562 797.897387 L 643.101562 802.596328 L 648.898438 805.09826 L 655.703125 803.096714 L 663.898438 802.197583 L 666.5 805.700287 L 666 805.700287 L 665.703125 810.696333 L 665.703125 814.097397 L 661.703125 815.403092 L 650 817.803383 L 643.703125 818.397592 L 641.296875 814.496142 L 636.601562 811.102897 L 628.296875 813.503188 L 624.601562 814.003574 L 612 809.398456 L 607 803.503278 L 601.703125 798.89816 L 594.796875 799.296905 L 582.203125 801.603374 L 575 803.597101 L 558.703125 813.002801 L 554.898438 816.802611 L 550.5 819.202902 L 543.5 824.902615 L 538.203125 825.700106 L 536.101562 828.702425 L 534.398438 833.596829 L 530.5 836.802429 L 524.398438 836.700788 L 516.101562 832.001847 L 504.5 833.401366 L 509.101562 828.202038 L 508.898438 811.798747 L 509.601562 799.500187 L 512.398438 789.70356 L 516.703125 782.0023 L 518 772.002391 L 520.296875 763.198718 L 521.601562 760.196399 L 527.703125 752.096394 L 528.796875 749.297358 L 529.5 747.796199 L 535.101562 743.503822 L 535.898438 741.901022 L 543.5 746.302858 L 565.5 743.699285 L 573.101562 744.098031 L 579.703125 745.896294 L 591.296875 750.298131 L 611 752.596781 L 623.203125 758.601418 L 629 758.499777 L 641 760.900068 Z M 642 760.196399 " transform="matrix(0.5,0,0,0.499614,0,0)"/>
<path style="fill-rule:nonzero;fill:rgb(48.627451%,48.627451%,48.627451%);fill-opacity:1;stroke-width:2;stroke-linecap:round;stroke-linejoin:round;stroke:rgb(100%,100%,100%);stroke-opacity:1;stroke-miterlimit:4;" d="M 889.203125 1262.998726 L 883.703125 1264.703167 L 876.398438 1261.80249 L 869.601562 1257.001908 L 865.703125 1253.30374 L 866.898438 1250.598526 L 866.796875 1248.096594 L 865.796875 1245.696303 L 864.101562 1243.600935 L 883.601562 1243.600935 L 883.601562 1245.399198 L 882.296875 1248.901903 L 881.898438 1251.80258 L 882.796875 1254.296694 L 887.5 1257.799399 L 889.5 1260.301331 Z M 865.203125 1085.400647 L 865.101562 1086.503061 L 861.703125 1086.096497 L 861.296875 1085.502288 L 858.601562 1084.501515 L 855.796875 1079.599292 L 854.398438 1075.299097 L 855 1074.697069 L 865 1074.00122 L 866.101562 1074.603247 L 866.898438 1076.596974 L 866.101562 1080.498424 L 865.203125 1082.101224 L 864.796875 1083.797847 Z M 702.101562 1199.496565 L 697.601562 1199.801488 L 687.398438 1195.102547 L 682.796875 1190.200324 L 679.601562 1184.297328 L 679 1178.198869 L 679.101562 1172.499155 L 676 1168.097318 L 672.601562 1166.400696 L 669.898438 1162.499245 L 670.398438 1158.003586 L 672.5 1154.102136 L 677.796875 1150.896536 L 680.296875 1147.096726 L 675.703125 1141.498654 L 673.101562 1136.502608 L 673.101562 1131.099999 L 672 1124.000767 L 670 1117.902308 L 668.796875 1111.397284 L 669.601562 1096.698434 L 672.601562 1089.200456 L 676.296875 1082.601611 L 678.703125 1076.002765 L 684.101562 1071.499288 L 691.703125 1069.896487 L 696.5 1067.199092 L 706.296875 1063.102178 L 708.296875 1058.098314 L 708.398438 1052.898987 L 711.203125 1039.099268 L 705.703125 1035.502741 L 700.296875 1034.197045 L 699.601562 1029.302641 L 696.101562 1022.703795 L 700 1022.203409 L 698.796875 1017.301186 L 692.601562 1010.897804 L 689.601562 1006.300504 L 688.296875 998.200499 L 690.601562 988.403871 L 699.101562 981.202998 L 703.398438 975.300002 L 703.5 964.103857 L 706.5 950.898347 L 704.398438 941.000078 L 705.203125 934.09631 L 712.601562 930.101037 L 715.296875 925.198814 L 713 919.201996 L 713.898438 913.502282 L 721.703125 908.396777 L 725.703125 904.503146 L 732.101562 900.398413 L 747.703125 896.598604 L 748.898438 904.002759 L 753.898438 912.102764 L 761.703125 914.9018 L 767.796875 917.802478 L 772.796875 922.60306 L 779.101562 923.502192 L 784.796875 925.003351 L 794 941.000078 L 805.703125 950.702884 L 813.898438 951.797479 L 820.398438 948.099311 L 821.296875 941.89921 L 821.203125 935.198724 L 824.296875 929.100264 L 829.101562 915.902573 L 832.796875 908.201314 L 835.203125 899.796386 L 837.898438 893.19754 L 841.296875 887.998213 L 844.898438 881.102263 L 844.296875 874.198494 L 842.601562 867.302544 L 846.5 861.899935 L 857.296875 856.700607 L 860.796875 857.70138 L 856.203125 884.096763 L 854 888.998986 L 846.898438 898.396868 L 844.296875 903.299091 L 842.203125 909.39755 L 840.703125 920.796978 L 840.898438 931.000169 L 839.898438 940.702974 L 835 950.601243 L 832.898438 952.696611 L 828.203125 956.199315 L 826 958.396324 L 825 960.702793 L 823.296875 966.496329 L 818.5 974.901257 L 815.601562 987.997307 L 813.5 993.900303 L 803.203125 1008.700795 L 801.898438 1011.39819 L 788 1023.196363 L 784.703125 1026.996172 L 784.296875 1029.701386 L 784.898438 1035.901486 L 784.703125 1038.700523 L 783.5 1041.898305 L 781.296875 1045.401009 L 776.601562 1051.499469 L 771.898438 1056.002946 L 755.796875 1066.698706 L 745 1078.59852 L 742.296875 1079.998038 L 740.203125 1082.703252 L 735 1096.198047 L 732.398438 1101.201911 L 724.398438 1111.201821 L 721.101562 1117.198639 L 719.203125 1129.497199 L 714.398438 1146.299236 L 704.898438 1162.999632 L 703.5 1168.699346 L 701.796875 1184.797714 Z M 702.101562 1199.496565 " transform="matrix(0.5,0,0,0.499614,0,0)"/>
<path style="fill-rule:nonzero;fill:rgb(48.627451%,48.627451%,48.627451%);fill-opacity:1;stroke-width:2;stroke-linecap:round;stroke-linejoin:round;stroke:rgb(100%,100%,100%);stroke-opacity:1;stroke-miterlimit:4;" d="M 320.703125 926.496691 L 318.898438 927.403642 L 317.601562 925.902483 L 316.101562 921.203542 L 317.101562 919.999487 L 320.898438 918.70161 L 323.601562 919.397459 L 323.703125 921.500646 L 323.5 923.103446 L 322.296875 924.299682 Z M 319.5 914.503055 L 317.796875 917.599196 L 315.601562 916.997168 L 313.601562 914.503055 L 313.296875 912.001123 L 314.5 910.898709 L 317.703125 911.399096 Z M 368.296875 911.297455 L 367.898438 911.399096 L 366.703125 909.897936 L 367 909.303728 L 369.5 909.100446 L 370.296875 911.101991 Z M 382.296875 906.700155 L 382.601562 906.903437 L 384.898438 906.903437 L 384.898438 908.201314 L 383.796875 909.702473 L 383.101562 911.500737 L 382 908.7017 Z M 348.796875 877.099172 L 347.101562 877.200813 L 344.101562 878.999076 L 343.703125 878.600331 L 344.101562 877.302454 L 345.203125 875.801294 L 345.898438 875.199267 L 347.5 874.902163 L 349 875.801294 Z M 340.398438 870.398685 L 340.5 872.697335 L 341 874.300135 L 342.398438 875.496371 L 341.796875 877.099172 L 340.601562 878.303226 L 341.203125 880.203131 L 339.703125 880.79734 L 336.601562 880.500235 L 335 879.796567 L 336.398438 876.700426 L 336.203125 872.501872 L 335.296875 873.103899 L 333.296875 873.698108 L 332.703125 871.399458 L 334.796875 866.301771 L 336.398438 865.996848 L 339.101562 869.601194 Z M 290.898438 864.698971 L 293.296875 865.300999 L 293.296875 866.903799 L 292.703125 867.802931 L 290.601562 868.397139 L 289.5 867.302544 Z M 349.398438 839.89857 L 346.203125 842.001757 L 344.101562 842.603784 L 341.898438 843.69838 L 340.601562 843.197993 L 340.296875 841.39973 L 341 840.797702 L 342.796875 841.298089 L 346.796875 839.296543 Z M 368.898438 811.900388 L 368.296875 813.198265 L 372.296875 811.900388 L 375.398438 812.299133 L 377.703125 812.10367 L 379.296875 809.398456 L 384 818.100488 L 385.203125 822.103579 L 384.703125 825.098079 L 382.703125 823.096533 L 380.203125 821.399911 L 377.398438 820.899524 L 373.398438 823.096533 L 370.601562 823.401456 L 369.203125 824.198947 L 368.5 825.700106 L 367.398438 829.79702 L 366.703125 831.001075 L 362 833.69847 L 357.203125 834.402138 L 352.398438 832.502234 L 347.5 827.600011 L 348.796875 825.098079 L 351.5 828.303679 L 355.5 829.202811 L 359.796875 827.998756 L 363.296875 825.098079 L 360.898438 824.198947 L 358.898438 823.002711 L 357.398438 821.399911 L 356 819.202902 L 355.203125 820.60242 L 354.203125 821.196629 L 353.898438 817.201356 L 354.203125 813.198265 L 356 813.198265 L 358.101562 813.698651 L 365.5 809.101351 L 370.101562 807.498551 Z M 329 821.196629 L 325.203125 821.196629 L 325.898438 819.101261 L 327.101562 817.803383 L 329 817.302997 L 331.5 817.099715 L 333.703125 816.200583 L 334.296875 814.199038 L 334.398438 809.398456 L 337.601562 798.999801 L 340.703125 795.997482 L 344.898438 799.601828 L 342.398438 801.102987 L 340.703125 804.699515 L 337.898438 813.198265 L 337.796875 815.403092 L 338.5 817.396819 L 338.203125 818.702515 L 335.203125 819.202902 L 333 819.296724 L 331.5 819.601647 L 330.203125 820.203674 Z M 362.796875 803.299996 L 360.601562 804.003665 L 359.5 802.502506 L 358.601562 798.999801 L 356.601562 796.099123 L 352.296875 791.798928 L 357.796875 787.702014 L 361.101562 789.398637 L 364.296875 792.197673 L 365.703125 795.098351 L 363.203125 797.498642 L 364.203125 801.001346 Z M 365.398438 772.901523 L 365.101562 773.800654 L 363.796875 770.798336 L 363.601562 769.398818 L 365.398438 767.897659 L 367 764.903159 L 367.5 765.997754 L 370 767.397272 L 369.601562 769.203354 L 367.398438 770.501232 Z M 365.398438 772.901523 " transform="matrix(0.5,0,0,0.499614,0,0)"/>
<path style="fill-rule:nonzero;fill:rgb(48.627451%,48.627451%,48.627451%);fill-opacity:1;stroke-width:2;stroke-linecap:round;stroke-linejoin:round;stroke:rgb(100%,100%,100%);stroke-opacity:1;stroke-miterlimit:4;" d="M 9.203125 576.39822 L 4 577.899379 L 1 576.703143 L 6 566.797056 L 7.296875 565.397538 L 9.398438 564.897152 L 11.5 564.803329 L 13.5 566.202847 L 15.101562 568.001111 L 15.101562 571.097252 L 13.703125 573.200438 L 12.101562 573.302079 L 11 574.498316 L 10.398438 575.70237 Z M 64.203125 549.596274 L 68.898438 562.199756 L 67.898438 571.003429 L 64 575.600729 L 57.203125 571.300534 L 52.203125 569.697734 L 44.101562 570.503043 L 37 574.998702 L 33.101562 581.097161 L 29.703125 582.801602 L 25.796875 580.901698 L 23.101562 580.800057 L 20.703125 579.697643 L 19.5 577.602275 L 20 576.898607 L 22.101562 574.09957 L 22.796875 572.903334 L 23 570.800147 L 22.898438 568.298215 L 22.203125 563.99802 L 20.398438 559.799465 L 20.203125 557.696278 L 21.703125 556.797147 L 29.296875 553.098978 L 39.296875 559.697824 L 46.296875 558.798692 L 47.398438 550.09666 L 49.703125 544.600228 L 57.203125 543.099069 Z M 333.5 411.896192 L 330.601562 413.397351 L 329.296875 412.201115 L 330 409.003333 L 332.398438 407.603814 L 334.101562 407.900919 L 334.296875 409.800824 Z M 333.5 411.896192 " transform="matrix(0.5,0,0,0.499614,0,0)"/>
<path style="fill-rule:nonzero;fill:rgb(48.627451%,48.627451%,48.627451%);fill-opacity:1;stroke-width:2;stroke-linecap:round;stroke-linejoin:round;stroke:rgb(100%,100%,100%);stroke-opacity:1;stroke-miterlimit:4;" d="M 469.203125 123.900363 L 469 126.199013 L 467.101562 128.3022 L 463 130.303746 L 465.5 124.697854 L 468 125.198241 L 468.101562 124.299109 Z M 457.398438 123.102873 L 455.398438 125.198241 L 453 121.797177 L 456.601562 120.4993 L 459.296875 122.000459 Z M 454.203125 68.201102 L 455.203125 68.701489 L 459.601562 66.097916 L 462.398438 66.097916 L 462.398438 67.896179 L 459.601562 71.10178 L 454.101562 74.002457 L 452.398438 74.299562 L 449.898438 72.602939 L 449.101562 70.202648 L 449.601562 67.403612 L 450.703125 65.402066 L 451.703125 65.198784 L 452 67.403612 Z M 475.5 50.398293 L 474.898438 52.60312 L 475.5 53.799356 L 474.101562 53.603893 L 472.601562 51.399065 L 471.5 50.703216 L 469.203125 52.001093 L 468.203125 51.602347 L 466.898438 51.899452 L 465.398438 53.603893 L 464.203125 58.599938 L 463.101562 57.89627 L 462.601562 56.402929 L 463.101562 52.102734 L 463.601562 50.499934 L 464.703125 49.796265 L 467.398438 48.897133 L 468.101562 47.998002 L 470.296875 46.700124 L 472.796875 47.09887 L 474.101562 48.998774 Z M 605.296875 4.800582 L 604.101562 5.199327 L 603 4.800582 L 601.601562 6.098459 L 600.5 8.201646 L 600.203125 7.701259 L 599 7.497977 L 597.203125 6.497205 L 598.296875 4.800582 L 597.796875 3.401064 L 598.703125 2.799036 L 600.898438 1.000773 L 603.5 2.501932 L 604.101562 3.799809 Z M 605.296875 4.800582 " transform="matrix(0.5,0,0,0.499614,0,0)"/>
</g>
</svg>
